<svg xmlns="http://www.w3.org/2000/svg" width="16.274" height="20.321" viewBox="0 0 16.274 20.321" fill="red">
    <g data-name="Group 916">
        <path data-name="Path 8377" d="M297.871 152.181c0-2.635.022-5.271-.008-7.9a3.317 3.317 0 0 1 2.608-3.178 3.127 3.127 0 0 1 .521-.039h10.022a3.214 3.214 0 0 1 3.121 3.121v16.072a1.034 1.034 0 0 1-1.707.872q-3.1-2.226-6.212-4.445a.3.3 0 0 0-.428 0q-3.121 2.244-6.252 4.471a1.022 1.022 0 0 1-1.22.052 1.065 1.065 0 0 1-.448-.946v-6.834zm2.036 6.2c.136-.094.227-.157.317-.221l5.113-3.653a1.058 1.058 0 0 1 1.362.006q2.59 1.86 5.184 3.716c.061.044.126.081.217.14V144.24c0-.9-.266-1.159-1.169-1.159h-9.858a3 3 0 0 0-.379.021.8.8 0 0 0-.779.807c-.01.1-.007.206-.007.309v13.861z" style="fill:#0293ea" transform="translate(-297.863 -141.056)"/>
    </g>
</svg>
