<svg data-name="Group 1467" xmlns="http://www.w3.org/2000/svg" width="11.684" height="14.387" viewBox="0 0 11.684 14.387">
    <path data-name="Path 182" d="M2.162 14.387h7.359a2.14 2.14 0 0 0 2.162-2.136V7.473a2.115 2.115 0 0 0-1.57-2.067V3.9A3.867 3.867 0 0 0 6.283 0h-.872a3.936 3.936 0 0 0-3.928 3.9v1.506A2.142 2.142 0 0 0 .001 7.473v4.778a2.14 2.14 0 0 0 2.161 2.136zM5.406 1.046h.877A2.817 2.817 0 0 1 9.068 3.9v1.419h-6.54V3.9a2.892 2.892 0 0 1 2.878-2.854z"/>
    <path data-name="Path 183" d="M211.606 305.87a.525.525 0 0 0 .523-.523v-1.657a.523.523 0 1 0-1.046 0v1.657a.525.525 0 0 0 .523.523z" transform="translate(-205.938 -293.837)" style="fill:#fff"/>
</svg>
